<svg height="512pt" viewBox="0 0 512 512" width="512pt" xmlns="http://www.w3.org/2000/svg" xmlns:xlink="http://www.w3.org/1999/xlink"><linearGradient id="a" gradientUnits="userSpaceOnUse" x1="0" x2="512" y1="256" y2="256"><stop offset="0" stop-color="#00f38d"/><stop offset="1" stop-color="#009eff"/></linearGradient><path d="m512 256c0 141.386719-114.613281 256-256 256s-256-114.613281-256-256 114.613281-256 256-256 256 114.613281 256 256zm0 0" fill="url(#a)"/><g fill="#fff"><path d="m336.21875 278.46875c-5.394531-5.367188-12.058594-9.472656-19.28125-11.863281l-.6875-.230469-66.964844-15.226562 15.03125 67.136718.234375.707032c2.402344 7.265624 6.53125 13.964843 11.9375 19.375l94.902344 92.296874 59.746094-59.882812zm34.855469 110.039062-73.429688-71.414062c-.167969-.171875-.320312-.363281-.484375-.542969l17.332032-17.320312c.195312.175781.402343.339843.589843.527343l73.359375 71.34375zm0 0"/><path d="m305.066406 402.109375h-183.429687c-7.496094 0-13.59375-6.09375-13.59375-13.589844v-266.40625c0-7.496093 6.097656-13.59375 13.59375-13.59375h266.40625c7.496093 0 13.59375 6.097657 13.59375 13.59375v184.019531l27.183593 26.4375v-210.457031c0-22.484375-18.292968-40.777343-40.777343-40.777343h-266.40625c-22.484375 0-40.777344 18.292968-40.777344 40.777343v266.40625c0 22.484375 18.292969 40.777344 40.777344 40.777344h211.378906zm0 0"/><path d="m148.820312 143.132812h212.039063v30h-212.039063zm0 0"/><path d="m148.820312 197.5h212.039063v30h-212.039063zm0 0"/><path d="m148.820312 251.867188h76.117188v30h-76.117188zm0 0"/></g></svg>